<svg xmlns="http://www.w3.org/2000/svg" viewBox="0 0 7.06 4.67"><defs><style>.cls-1{fill:#3f5d45;}</style></defs><g id="圖層_2" data-name="圖層 2"><g id="AREUTh.tif"><path class="cls-1" d="M9.94,41H6.87c-.23,0-.45,0-.45-.34s.21-.37.47-.37H13c.23,0,.44,0,.45.34s-.2.37-.46.37Z" transform="translate(-6.42 -40.31)"/><path class="cls-1" d="M10,43H6.88c-.27,0-.47,0-.46-.37s.23-.33.46-.33H13c.27,0,.47,0,.46.37S13.26,43,13,43Z" transform="translate(-6.42 -40.31)"/><path class="cls-1" d="M10,45H6.9c-.25,0-.48,0-.48-.35s.24-.35.48-.35H13c.25,0,.48,0,.48.35S13.24,45,13,45Z" transform="translate(-6.42 -40.31)"/></g></g></svg>