<svg xmlns="http://www.w3.org/2000/svg" viewBox="0 0 38.23 38.35"><defs><style>.cls-1{fill:#3f5d45;}</style></defs><g id="圖層_2" data-name="圖層 2"><g id="SnklqK.tif"><path class="cls-1" d="M26,31.37c-3.31,0-6.62,0-9.93,0-3.8-.07-5.65-2.89-3.55-6.05s2-5.62.1-8.66A63.77,63.77,0,0,1,8.71,8.3C8.09,6.83,7.26,6,5.58,6.15c-1.35.15-1.8-.49-1.79-1.8s.56-1.63,1.75-1.67c2.32-.07,4.51-.25,5.48,2.68.21.64,1.75,1.17,2.69,1.18,8.16.09,16.32,0,24.49.06a7.57,7.57,0,0,1,2.19.11c1.23.4,2.14,1.14,1.33,2.63-2.22,4.06-4.29,8.22-6.8,12.09a6.16,6.16,0,0,1-4.25,2.1c-3.88.3-7.79,0-11.69.16a3.68,3.68,0,0,0-2.41,1.08,7.45,7.45,0,0,0-1,2.56,11.27,11.27,0,0,0,2.44.59C24,28,30,28,35.92,28c1.18,0,2.36-.19,2.37,1.69S37.18,31.38,36,31.38Z" transform="translate(-3.79 -2.65)"/><path class="cls-1" d="M15.26,33.91a3.8,3.8,0,0,1,3.46,3.58A3.84,3.84,0,0,1,15.17,41a3.55,3.55,0,0,1,.09-7.09Z" transform="translate(-3.79 -2.65)"/><path class="cls-1" d="M38.15,37.51A3.85,3.85,0,0,1,34.58,41a3.67,3.67,0,0,1-3.39-3.61,3.64,3.64,0,0,1,3.51-3.48A3.8,3.8,0,0,1,38.15,37.51Z" transform="translate(-3.79 -2.65)"/></g></g></svg>